<svg fill="none" height="1059" viewBox="0 0 1440 1059" width="1440" xmlns="http://www.w3.org/2000/svg"><g fill="#f8f8f8"><rect height="75" rx="37.5" transform="matrix(.70710678 .70710678 -.70710678 .70710678 294.366472 -710.663528)" width="493.886" x="1005.03"/><rect height="75" rx="37.5" transform="matrix(.70710678 .70710678 -.70710678 .70710678 400.801556 -846.718151)" width="493.886" x="1222.48" y="60.4512"/><g clip-rule="evenodd" fill-rule="evenodd"><path d="m-58 994.39c202.904 0 367.39-164.486 367.39-367.39s-164.486-367.39-367.39-367.39-367.39 164.486-367.39 367.39 164.486 367.39 367.39 367.39zm0 64.61c238.587 0 432-193.413 432-432s-193.413-432-432-432-432 193.413-432 432 193.413 432 432 432z"/><path d="m-58.0008 860.102c128.739 0 233.1028-104.363 233.1028-233.102s-104.3638-233.103-233.1028-233.103c-128.7392 0-233.1022 104.364-233.1022 233.103s104.363 233.102 233.1022 233.102zm0 64.61c164.4218 0 297.7128-133.29 297.7128-297.712s-133.291-297.713-297.7128-297.713c-164.4222 0-297.7122 133.291-297.7122 297.713s133.29 297.712 297.7122 297.712z"/><path d="m-58.0003 727.081c55.27381 0 100.0821-44.808 100.0821-100.082s-44.80829-100.082-100.0821-100.082c-55.2737 0-100.0817 44.808-100.0817 100.082s44.808 100.082 100.0817 100.082zm0 64.61c90.9569 0 164.6923-73.735 164.6923-164.692s-73.7354-164.692-164.6923-164.692c-90.9567 0-164.6917 73.735-164.6917 164.692s73.735 164.692 164.6917 164.692z"/></g></g></svg>