<svg fill="none" height="120" viewBox="0 0 120 120" width="120" xmlns="http://www.w3.org/2000/svg"><rect fill="#f0f0f0" height="120" rx="60" width="120"/><g fill="#000"><path clip-rule="evenodd" d="m73.7544 34.0418c0 1.3989 1.1341 2.5329 2.5329 2.5329 1.3989 0 2.533-1.134 2.533-2.5329v-4.2221h4.2215c1.3989 0 2.5329-1.134 2.5329-2.5329s-1.134-2.5329-2.5329-2.5329h-4.2215v-4.221c0-1.3989-1.1341-2.5329-2.533-2.5329-1.3988 0-2.5329 1.134-2.5329 2.5329v4.221h-4.2215c-1.3989 0-2.5329 1.134-2.5329 2.5329s1.134 2.5329 2.5329 2.5329h4.2215z" fill-rule="evenodd"/><rect height="6.3301" rx="3" transform="matrix(0 -1 1 0 39.5844 130.2798)" width="6.3301" x="84.9321" y="45.3477"/><path clip-rule="evenodd" d="m38.5913 51.3019c-.2898-1.0811-.9694-1.9063-2.2788-2.5069-1.1295-.5181-1.6251-1.8536-1.1071-2.9831s1.8536-1.6252 2.9831-1.1071c2.5465 1.1679 4.4232 3.2886 4.9312 6.2637 1.3229-.734 2.7627-1.2831 4.2843-1.6123.3928-5.2327 4.7629-9.3562 10.0961-9.3562 4.8659 0 8.93 3.4325 9.9032 8.0082l5.9454-3.6954c2.0279-1.2605 4.401.0446 4.401 2.4383 0 0 0 4.6684-.0245 5.0556 2.8743 1.9979 5.0133 4.9187 6.0588 8.4429h1.8378c1.8544 0 3.3777 1.5054 3.3777 3.3698v9.0102c0 1.8537-1.5162 3.3697-3.3777 3.3697 0 0-5.6221 0-5.8542-.0122-.9835.9327-2.0179 1.6778-2.0179 1.6778v3.9565c0 1.8553-1.507 3.3777-3.3716 3.3777h-6.7565c-1.8576 0-3.3716-1.5152-3.3716-3.3777v-1.1222h-8.9998v1.1222c0 1.8553-1.507 3.3777-3.3716 3.3777h-6.7566c-1.8576 0-3.3716-1.5152-3.3716-3.3777 0 0-.0225-3.5802-.0225-3.9599-4.1611-2.9101-6.7274-7.6886-6.7274-12.912 0-3.637 1.2326-6.9858 3.3028-9.6516.0146-.0451.7609-2.0321.288-3.796zm27.3287 4.448h.5903c1.2291 0 2.2396 1.0073 2.2396 2.2499 0 1.2513-1.0027 2.25-2.2396 2.25h-18.0204c-1.2291 0-2.2396-1.0074-2.2396-2.25 0-1.2513 1.0027-2.2499 2.2396-2.2499h.5904c-.4021-.6007-.7416-1.2467-1.0092-1.9289-4.92 1.202-8.5706 5.6383-8.5706 10.9287 0 7.5225 6.7498 10.3954 6.7498 10.3954v5.3543h4.4999v-4.4999h17.9997l-.0338 4.4999 4.5337.0113v-5.3652s2.8182-1.3784 4.5569-3.6459c2.676 0 6.6929.0337 6.6929.0337v-6.7836s-3.1446 0-4.3405 0c-.3915-7.8062-6.9093-10.3954-6.9093-10.3954v-4.6689l-6.1574 3.8145c-.3267.8011-.7078 1.5558-1.1724 2.25zm7.3298 8.9996c-1.2426 0-2.2499-1.0073-2.2499-2.2499s1.0073-2.25 2.2499-2.25 2.25 1.0074 2.25 2.25-1.0074 2.2499-2.25 2.2499zm-15.7497-8.9998c3.1066 0 5.6249-2.5184 5.6249-5.6249s-2.5183-5.6249-5.6249-5.6249c-3.1065 0-5.6249 2.5184-5.6249 5.6249s2.5184 5.6249 5.6249 5.6249z" fill-rule="evenodd"/></g></svg>