<svg fill="none" height="120" viewBox="0 0 120 120" width="120" xmlns="http://www.w3.org/2000/svg"><rect fill="#f0f0f0" height="120" rx="60" width="120"/><g fill="#000"><path clip-rule="evenodd" d="m31.4692 91.7394c0 1.5469 1.254 2.801 2.8009 2.801s2.801-1.2541 2.801-2.801v-4.6688h4.6683c1.5469 0 2.801-1.254 2.801-2.8009 0-1.547-1.254-2.801-2.801-2.801h-4.6683v-4.6677c0-1.547-1.2541-2.801-2.801-2.801s-2.8009 1.254-2.8009 2.801v4.6677h-4.6682c-1.547 0-2.801 1.254-2.801 2.801 0 1.5469 1.254 2.8009 2.801 2.8009h4.6682z" fill-rule="evenodd"/><rect height="7" rx="3" transform="matrix(0 -1 1 0 -57 143)" width="7" x="43" y="100"/><path clip-rule="evenodd" d="m61 82.2727c-3.0125 0-5.4545-2.4421-5.4545-5.4545 0-3.0125 2.442-5.4546 5.4545-5.4546 2.019 0 3.7817 1.0969 4.7248 2.7273h6.1963c2.9979 0 5.4425-2.4482 5.4425-5.4618v-21.8166c0-9.0301-7.3283-16.358-16.3636-16.358-9.039 0-16.3636 7.3231-16.3636 16.358v15.0096c0 3.7629-3.0567 6.8143-6.8182 6.8143-3.7651 0-6.8182-3.0501-6.8182-6.8143v-8.1896c0-3.7629 3.0567-6.8143 6.8182-6.8143h1.3636c0-12.0533 9.767-21.8182 21.8182-21.8182 12.0477 0 21.8182 9.7698 21.8182 21.8125l1.3636.0057c3.7615 0 6.8182 3.0514 6.8182 6.8143v8.1896c0 3.7642-3.0531 6.8143-6.8182 6.8143h-1.3636c-.0039 6.021-4.8874 10.9091-10.8971 10.9091h-6.1963c-.9431 1.6303-2.7058 2.7272-4.7248 2.7272zm-23.1818-30c-.7512 0-1.3637.6114-1.3637 1.3598v8.1896c0 .7505.6098 1.3597 1.3637 1.3597.7511 0 1.3636-.6114 1.3636-1.3597v-9.5494zm47.7273 9.5494v-8.1896c0-.7484-.6125-1.3598-1.3637-1.3598h-1.3636v10.9091h1.3636c.7539 0 1.3637-.6092 1.3637-1.3597zm-31.3637-1.3676c-2.2593 0-4.0909-1.8315-4.0909-4.0909 0-2.2593 1.8316-4.0909 4.0909-4.0909 2.2594 0 4.0909 1.8316 4.0909 4.0909 0 2.2594-1.8315 4.0909-4.0909 4.0909zm13.6364 0c-2.2594 0-4.0909-1.8315-4.0909-4.0909 0-2.2593 1.8315-4.0909 4.0909-4.0909 2.2593 0 4.0909 1.8316 4.0909 4.0909 0 2.2594-1.8316 4.0909-4.0909 4.0909z" fill-rule="evenodd"/></g></svg>