<svg fill="none" height="120" viewBox="0 0 120 120" width="120" xmlns="http://www.w3.org/2000/svg"><rect fill="#f0f0f0" height="120" rx="60" width="120"/><g fill="#000"><path clip-rule="evenodd" d="m41.1525 41.7616c-1.8658.6147-2.4249 2.9554-1.0342 4.33l9.3538 9.2458c1.3907 1.3746 3.7587.8221 4.3806-1.0222l4.6769-13.8686c.6894-2.0444-1.2782-3.9893-3.3465-3.3079zm-1.9689 10.8038c1.0332-1.0212 2.7083-1.0212 3.7415 0 1.0332 1.0213 1.0332 2.6771 0 3.6983l-4.6779 4.6239c-2.0632 2.0394-2.0627 5.7753 0 7.8141 2.211 2.1855 6.2771 2.5828 8.8885.8619l14.8423-9.8479c4.6996-3.0969 11.5777-2.4261 15.5651 1.5154 4.1327 4.0849 4.1298 10.3576 0 14.4397l-3.7506 3.7073c-1.0332 1.0213-2.7083 1.0213-3.7415 0-1.0332-1.0212-1.0332-2.677 0-3.6983l3.7506-3.7073c2.0619-2.038 2.0679-4.9992 0-7.0431-2.2034-2.178-6.287-2.5763-8.8885-.8619l-14.8423 9.8479c-4.7098 3.1036-11.5703 2.4333-15.5651-1.5154-4.1282-4.0805-4.1304-11.128 0-15.2107zm27.516 39.1581c-3.0355 3.0355-7.9569 3.0355-10.9924 0s-3.0355-7.9569 0-10.9924 7.9569-3.0355 10.9924 0 3.0355 7.9569 0 10.9924zm-16.513-43.0748 1.6499-4.8927-4.9498 1.6309zm12.85 35.7467c1.0118 1.0118 1.0118 2.6523 0 3.6641-1.0118 1.0119-2.6523 1.0119-3.6641 0-1.0118-1.0118-1.0118-2.6523 0-3.6641s2.6523-1.0118 3.6641 0z" fill-rule="evenodd"/><path clip-rule="evenodd" d="m73.4692 37.7394c0 1.5469 1.254 2.801 2.8009 2.801s2.801-1.2541 2.801-2.801v-4.6688h4.6683c1.5469 0 2.801-1.254 2.801-2.8009 0-1.547-1.254-2.801-2.801-2.801h-4.6683v-4.6677c0-1.547-1.2541-2.801-2.801-2.801s-2.8009 1.254-2.8009 2.801v4.6677h-4.6682c-1.547 0-2.801 1.254-2.801 2.801 0 1.5469 1.254 2.8009 2.801 2.8009h4.6682z" fill-rule="evenodd"/><rect height="7" rx="3" transform="matrix(0 -1 1 0 34.4819 137.1773)" width="7" x="85.8296" y="51.3477"/></g></svg>