<svg fill="none" height="120" viewBox="0 0 120 120" width="120" xmlns="http://www.w3.org/2000/svg"><rect fill="#f0f0f0" height="120" rx="60" width="120"/><g fill="#000"><path clip-rule="evenodd" d="m66.8949 87.1493h-22.0974c-1.5167 0-2.7463-1.2442-2.7463-2.7708v-11.0124c0-1.5303 1.2391-2.7708 2.7463-2.7708h2.7717v-5.518h-2.7717c-1.5167 0-2.7463-1.2442-2.7463-2.7708v-8.2652h-2.7717c-1.5167 0-2.7463-1.2442-2.7463-2.7708v-11.0124c0-1.5303 1.2391-2.7708 2.7463-2.7708h22.0974c1.5167 0 2.7463 1.2442 2.7463 2.7708v8.2652h2.7717c1.5167 0 2.7463 1.2442 2.7463 2.7708v8.2652h8.277c7.6188 0 13.795 6.1762 13.795 13.795s-6.1762 13.795-13.795 13.795c-3.1056 0-5.9714-1.0262-8.277-2.758-.0069 1.5244-1.2433 2.758-2.7463 2.758zm-13.8063-22.0712v5.518h11.312c.4138-2.0386 1.2771-3.9139 2.482-5.518zm-11.0377-22.0731v5.518h16.554v-5.518zm5.5172 11.0377v5.518h16.554v-5.518zm0 22.0693v5.518h16.554v-5.518zm30.3492 5.5201c4.5712 0 8.277-3.7057 8.277-8.277s-3.7058-8.277-8.277-8.277c-4.5713 0-8.277 3.7057-8.277 8.277s3.7057 8.277 8.277 8.277z" fill-rule="evenodd"/><path clip-rule="evenodd" d="m76.6396 36.3918c0 1.5469 1.254 2.8009 2.8009 2.8009 1.547 0 2.801-1.254 2.801-2.8009v-4.6688h4.6683c1.547 0 2.801-1.2541 2.801-2.801s-1.254-2.8009-2.801-2.8009h-4.6683v-4.6678c0-1.5469-1.254-2.801-2.801-2.801-1.5469 0-2.8009 1.2541-2.8009 2.801v4.6678h-4.6682c-1.547 0-2.801 1.254-2.801 2.8009s1.254 2.801 2.801 2.801h4.6682z" fill-rule="evenodd"/><rect height="7" rx="3" transform="matrix(0 -1 1 0 39 139)" width="7" x="89" y="50"/></g></svg>