<svg fill="none" height="120" viewBox="0 0 120 120" width="120" xmlns="http://www.w3.org/2000/svg"><rect fill="#f0f0f0" height="120" rx="60" width="120"/><g fill="#000"><path clip-rule="evenodd" d="m77.4692 35.7394c0 1.5469 1.254 2.801 2.8009 2.801s2.801-1.2541 2.801-2.801v-4.6688h4.6683c1.5469 0 2.801-1.254 2.801-2.8009 0-1.547-1.254-2.801-2.801-2.801h-4.6683v-4.6677c0-1.547-1.2541-2.801-2.801-2.801s-2.8009 1.254-2.8009 2.801v4.6677h-4.6682c-1.547 0-2.801 1.254-2.801 2.801 0 1.5469 1.254 2.8009 2.801 2.8009h4.6682z" fill-rule="evenodd"/><rect height="7" rx="3" transform="matrix(0 -1 1 0 40.4819 139.1773)" width="7" x="89.8296" y="49.3477"/><path clip-rule="evenodd" d="m55.1404 75.59h5.7852l3.2547 8.6795 12.8992.0008-3.2547-11.5726-11.4541.0021-1.4451 2.8902h-5.7852l-1.4443-2.8886-11.5636.0021-3.2128 11.5643 12.9662.0009zm-8.6783-20.247c0 6.3901 5.1803 11.5704 11.5704 11.5704s11.5704-5.1803 11.5704-11.5704c0-.9988-.1266-1.9681-.3645-2.8926h-22.4118c-.2379.9245-.3645 1.8938-.3645 2.8926zm-5.7843-.0001c0-9.5852 7.7703-17.3556 17.3556-17.3556 9.5852 0 17.3555 7.7704 17.3555 17.3556 0 4.4451-1.671 8.4998-4.4192 11.5704h4.3796c1.5906 0 3.2264 1.2441 3.6573 2.7913l4.8899 17.5584c.4293 1.5416-.5148 2.7924-2.1285 2.7938l-47.5323.0391c-1.6049.0014-2.5616-1.2441-2.1335-2.7942l4.8583-17.5918c.4266-1.5445 2.0739-2.7966 3.6523-2.7966h4.4843c-2.7482-3.0706-4.4193-7.1253-4.4193-11.5704z" fill-rule="evenodd"/></g></svg>