<svg fill="none" height="33" viewBox="0 0 120 33" width="120" xmlns="http://www.w3.org/2000/svg"><path d="m0 7.35889h7.81882c6.85838 0 12.41808 5.55981 12.41808 12.41811s-5.5597 12.4181-12.41809 12.4181h-7.81881z" fill="#a028fb"/><circle cx="19.7769" cy="7.35889" fill="#ec6d64" r="7.35889"/><path d="m20.2368 6.89899h-7.8188c0 7.17491 5.2125 11.88151 7.8188 13.33801z" fill="#ec6d64"/><g fill="#000"><path d="m38.0488 16.0975h19.0244v2.92683h-19.0244z"/><path d="m40.9756 10.2439h13.1707v2.92683h-13.1707z"/><path d="m42.439 27.0732c5.8536 0 6.8292-5.3659 6.5853-8.0488h2.9269c.5853 8.1951-6.0976 10.7317-9.5122 10.9756z"/><path d="m55.6099 12.8498h2.92683v2.92683h-2.92683z" transform="matrix(.92066027 -.3903648 .3903648 .92066027 -.604035 22.727647)"/><path d="m55.6099 8.45953h2.92683v2.92683h-2.92683z" transform="matrix(.92066027 -.3903648 .3903648 .92066027 1.109772 22.379324)"/><path d="m70.2439 17.5609 2.9268-1.4634v13.1708h-2.9268z"/><path d="m64.3901 20.4878c11.7074.5853 14.6342-5.6098 14.6342-8.7805l-2.9268-.7317c0 5.2683-7.8049 6.5854-11.7074 6.5854z"/><path d="m87.8049 10.2439h2.92683v20.4878h-2.92683z"/><path d="m90 19.7561 7.3171 2.1951v-2.9268l-7.3171-2.9269z"/><path d="m103.902 10.2439h16.0976v2.92683h-16.0976z"/><path d="m103.902 16.0975h16.0976v2.92683h-16.0976z"/><path d="m106.829 26.3415c8.195 1.1707 10.244-4.3903 10.244-7.3171h2.927c0 3.6586-2.634 10.8293-13.171 10.2439z"/></g></svg>